<?xml version="1.0" encoding="UTF-8" standalone="no"?> <svg id="Layer_1" data-name="Layer 1" xmlns="http://www.w3.org/2000/svg" viewBox="0 0 25 25" width="24" height="24"><title>Tag</title><path id="Tag" d="M11.46,25a1.82,1.82,0,0,1-1.29-.53L.54,14.83a1.75,1.75,0,0,1,0-2.52h0L11.94,1a4.06,4.06,0,0,1,2.62-1h8.85A1.44,1.44,0,0,1,25,1.58v8.85a4.06,4.06,0,0,1-1,2.62L12.76,24.46A1.83,1.83,0,0,1,11.46,25ZM1.24,13a.76.76,0,0,0,0,1.11l9.63,9.63a.83.83,0,0,0,1.17,0l11.28-11.4A3.07,3.07,0,0,0,24,10.44V1.58c0-.46-.13-.58-.58-.58H14.56a3.07,3.07,0,0,0-1.91.67ZM18,10a3,3,0,1,1,3-3A3,3,0,0,1,18,10Zm0-5a2,2,0,1,0,2,2A2,2,0,0,0,18,5Z" fill="#0e1d25"/></svg>
